<?xml version="1.0" encoding="UTF-8"?>
<svg xmlns="http://www.w3.org/2000/svg" xmlns:xlink="http://www.w3.org/1999/xlink" width="0" height="0">
<defs>
<symbol viewBox="0 0 15 15" id="update"><path fill="currentColor" fill-rule="evenodd" d="M1.903 7.297c0 3.044 2.207 5.118 4.686 5.547a.521.521 0 1 1-.178 1.027C3.5 13.367.861 10.913.861 7.297c0-1.537.699-2.745 1.515-3.663c.585-.658 1.254-1.193 1.792-1.602H2.532a.5.5 0 0 1 0-1h3a.5.5 0 0 1 .5.5v3a.5.5 0 0 1-1 0V2.686l-.001.002c-.572.43-1.27.957-1.875 1.638c-.715.804-1.253 1.776-1.253 2.97m11.108.406c0-3.012-2.16-5.073-4.607-5.533a.521.521 0 1 1 .192-1.024c2.874.54 5.457 2.98 5.457 6.557c0 1.537-.699 2.744-1.515 3.663c-.585.658-1.254 1.193-1.792 1.602h1.636a.5.5 0 1 1 0 1h-3a.5.5 0 0 1-.5-.5v-3a.5.5 0 1 1 1 0v1.845h.002c.571-.432 1.27-.958 1.874-1.64c.715-.803 1.253-1.775 1.253-2.97" clip-rule="evenodd"></path></symbol>
<symbol viewBox="0 0 15 15" id="sun"><path fill="currentColor" fill-rule="evenodd" d="M7.5 0a.5.5 0 0 1 .5.5v2a.5.5 0 0 1-1 0v-2a.5.5 0 0 1 .5-.5M2.197 2.197a.5.5 0 0 1 .707 0L4.318 3.61a.5.5 0 0 1-.707.707L2.197 2.904a.5.5 0 0 1 0-.707M.5 7a.5.5 0 0 0 0 1h2a.5.5 0 0 0 0-1zm1.697 5.803a.5.5 0 0 1 0-.707l1.414-1.414a.5.5 0 1 1 .707.707l-1.414 1.414a.5.5 0 0 1-.707 0M12.5 7a.5.5 0 0 0 0 1h2a.5.5 0 0 0 0-1zm-1.818-2.682a.5.5 0 0 1 0-.707l1.414-1.414a.5.5 0 1 1 .707.707L11.39 4.318a.5.5 0 0 1-.707 0M8 12.5a.5.5 0 0 0-1 0v2a.5.5 0 0 0 1 0zm2.682-1.818a.5.5 0 0 1 .707 0l1.414 1.414a.5.5 0 1 1-.707.707l-1.414-1.414a.5.5 0 0 1 0-.707M5.5 7.5a2 2 0 1 1 4 0a2 2 0 0 1-4 0m2-3a3 3 0 1 0 0 6a3 3 0 0 0 0-6" clip-rule="evenodd"></path></symbol>
<symbol viewBox="0 0 15 15" id="plus"><path fill="currentColor" fill-rule="evenodd" d="M8 2.75a.5.5 0 0 0-1 0V7H2.75a.5.5 0 0 0 0 1H7v4.25a.5.5 0 0 0 1 0V8h4.25a.5.5 0 0 0 0-1H8z" clip-rule="evenodd"></path></symbol>
<symbol viewBox="0 0 15 15" id="moon"><path fill="currentColor" fill-rule="evenodd" d="M2.9.5a.4.4 0 0 0-.8 0v.6h-.6a.4.4 0 1 0 0 .8h.6v.6a.4.4 0 1 0 .8 0v-.6h.6a.4.4 0 0 0 0-.8h-.6zm3 3a.4.4 0 1 0-.8 0v.6h-.6a.4.4 0 1 0 0 .8h.6v.6a.4.4 0 1 0 .8 0v-.6h.6a.4.4 0 0 0 0-.8h-.6zm-4 3a.4.4 0 1 0-.8 0v.6H.5a.4.4 0 1 0 0 .8h.6v.6a.4.4 0 0 0 .8 0v-.6h.6a.4.4 0 0 0 0-.8h-.6zM8.544.982l-.298-.04c-.213-.024-.34.224-.217.4q.211.305.389.632A6.602 6.602 0 0 1 2.96 11.69c-.215.012-.334.264-.184.417q.103.105.21.206l.072.066l.26.226l.188.148l.121.09l.187.131l.176.115q.18.115.37.217l.264.135l.26.12l.303.122l.244.086a6.6 6.6 0 0 0 1.103.26l.317.04l.267.02q.19.011.384.011a6.6 6.6 0 0 0 6.56-7.339l-.038-.277a6.6 6.6 0 0 0-.384-1.415l-.113-.268l-.077-.166l-.074-.148a6.6 6.6 0 0 0-.546-.883l-.153-.2l-.199-.24l-.163-.18l-.12-.124l-.16-.158l-.223-.2l-.32-.26l-.245-.177l-.292-.19l-.321-.186l-.328-.165l-.113-.052l-.24-.101l-.276-.104l-.252-.082l-.325-.09l-.265-.06zm1.86 4.318a7.6 7.6 0 0 0-.572-2.894a5.601 5.601 0 1 1-4.748 10.146a7.6 7.6 0 0 0 3.66-2.51a.749.749 0 0 0 1.355-.442a.75.75 0 0 0-.584-.732q.093-.174.178-.355A1.25 1.25 0 1 0 10.35 6.2q.052-.442.052-.9" clip-rule="evenodd"></path></symbol>
<symbol viewBox="0 0 15 15" id="laptop"><path fill="currentColor" fill-rule="evenodd" d="M2 4.25A.25.25 0 0 1 2.25 4h10.5a.25.25 0 0 1 .25.25v7.25H2zM2.25 3C1.56 3 1 3.56 1 4.25V12H0v.5a.5.5 0 0 0 .5.5h14a.5.5 0 0 0 .5-.5V12h-1V4.25C14 3.56 13.44 3 12.75 3z" clip-rule="evenodd"></path></symbol>
<symbol viewBox="0 0 15 15" id="download"><path fill="currentColor" fill-rule="evenodd" d="M7.5 1.05a.45.45 0 0 1 .45.45v6.914l2.232-2.232a.45.45 0 1 1 .636.636l-3 3a.45.45 0 0 1-.636 0l-3-3a.45.45 0 1 1 .636-.636L7.05 8.414V1.5a.45.45 0 0 1 .45-.45M2.5 10a.5.5 0 0 1 .5.5V12c0 .554.446 1 .996 1h7.005A1 1 0 0 0 12 12v-1.5a.5.5 0 0 1 1 0V12a2 2 0 0 1-1.999 2H3.996A1.997 1.997 0 0 1 2 12v-1.5a.5.5 0 0 1 .5-.5" clip-rule="evenodd"></path></symbol>
</defs>
</svg>