<?xml version="1.0" encoding="UTF-8"?>
<svg xmlns="http://www.w3.org/2000/svg" xmlns:xlink="http://www.w3.org/1999/xlink" width="0" height="0">
<defs>
<symbol viewBox="0 0 15 15" id="update"><path fill="currentColor" fill-rule="evenodd" d="M1.903 7.297c0 3.044 2.207 5.118 4.686 5.547a.521.521 0 1 1-.178 1.027C3.5 13.367.861 10.913.861 7.297c0-1.537.699-2.745 1.515-3.663c.585-.658 1.254-1.193 1.792-1.602H2.532a.5.5 0 0 1 0-1h3a.5.5 0 0 1 .5.5v3a.5.5 0 0 1-1 0V2.686l-.001.002c-.572.43-1.27.957-1.875 1.638c-.715.804-1.253 1.776-1.253 2.97m11.108.406c0-3.012-2.16-5.073-4.607-5.533a.521.521 0 1 1 .192-1.024c2.874.54 5.457 2.98 5.457 6.557c0 1.537-.699 2.744-1.515 3.663c-.585.658-1.254 1.193-1.792 1.602h1.636a.5.5 0 1 1 0 1h-3a.5.5 0 0 1-.5-.5v-3a.5.5 0 1 1 1 0v1.845h.002c.571-.432 1.27-.958 1.874-1.64c.715-.803 1.253-1.775 1.253-2.97" clip-rule="evenodd"></path></symbol>
<symbol viewBox="0 0 15 15" id="sun"><path fill="currentColor" fill-rule="evenodd" d="M7.5 0a.5.5 0 0 1 .5.5v2a.5.5 0 0 1-1 0v-2a.5.5 0 0 1 .5-.5M2.197 2.197a.5.5 0 0 1 .707 0L4.318 3.61a.5.5 0 0 1-.707.707L2.197 2.904a.5.5 0 0 1 0-.707M.5 7a.5.5 0 0 0 0 1h2a.5.5 0 0 0 0-1zm1.697 5.803a.5.5 0 0 1 0-.707l1.414-1.414a.5.5 0 1 1 .707.707l-1.414 1.414a.5.5 0 0 1-.707 0M12.5 7a.5.5 0 0 0 0 1h2a.5.5 0 0 0 0-1zm-1.818-2.682a.5.5 0 0 1 0-.707l1.414-1.414a.5.5 0 1 1 .707.707L11.39 4.318a.5.5 0 0 1-.707 0M8 12.5a.5.5 0 0 0-1 0v2a.5.5 0 0 0 1 0zm2.682-1.818a.5.5 0 0 1 .707 0l1.414 1.414a.5.5 0 1 1-.707.707l-1.414-1.414a.5.5 0 0 1 0-.707M5.5 7.5a2 2 0 1 1 4 0a2 2 0 0 1-4 0m2-3a3 3 0 1 0 0 6a3 3 0 0 0 0-6" clip-rule="evenodd"></path></symbol>
<symbol viewBox="0 0 15 15" id="plus"><path fill="currentColor" fill-rule="evenodd" d="M8 2.75a.5.5 0 0 0-1 0V7H2.75a.5.5 0 0 0 0 1H7v4.25a.5.5 0 0 0 1 0V8h4.25a.5.5 0 0 0 0-1H8z" clip-rule="evenodd"></path></symbol>
<symbol viewBox="0 0 15 15" id="pencil-2"><path fill="currentColor" fill-rule="evenodd" d="M12.146 1.146a.5.5 0 0 1 .707 0l2 2a.5.5 0 0 1 0 .708l-3.942 3.942a1 1 0 0 1-.26.188L6.724 9.947a.5.5 0 0 1-.671-.67l1.963-3.928a1 1 0 0 1 .188-.26zm.354 1.061l-3.59 3.59l-1.037 2.076l.254.254l2.077-1.038L13.793 3.5zM10 2L9 3H4.9c-.428 0-.72 0-.944.019c-.22.018-.332.05-.41.09a1 1 0 0 0-.437.437c-.04.078-.072.19-.09.41C3 4.18 3 4.472 3 4.9v6.2c0 .428 0 .72.019.944c.018.22.05.332.09.41a1 1 0 0 0 .437.437c.078.04.19.072.41.09c.225.019.516.019.944.019h6.2c.428 0 .72 0 .944-.019c.22-.018.332-.05.41-.09a1 1 0 0 0 .437-.437c.04-.078.072-.19.09-.41c.019-.225.019-.516.019-.944V7l1-1v5.12c0 .403 0 .735-.022 1.006c-.023.281-.072.54-.196.782a2 2 0 0 1-.874.874c-.243.124-.501.173-.782.196c-.27.022-.603.022-1.005.022H4.88c-.403 0-.735 0-1.006-.022c-.281-.023-.54-.072-.782-.196a2 2 0 0 1-.874-.874c-.124-.243-.173-.501-.196-.782C2 11.856 2 11.523 2 11.12V4.88c0-.403 0-.735.022-1.006c.023-.281.072-.54.196-.782a2 2 0 0 1 .874-.874c.243-.124.501-.173.782-.196C4.144 2 4.477 2 4.88 2z" clip-rule="evenodd"></path></symbol>
<symbol viewBox="0 0 15 15" id="moon"><path fill="currentColor" fill-rule="evenodd" d="M2.9.5a.4.4 0 0 0-.8 0v.6h-.6a.4.4 0 1 0 0 .8h.6v.6a.4.4 0 1 0 .8 0v-.6h.6a.4.4 0 0 0 0-.8h-.6zm3 3a.4.4 0 1 0-.8 0v.6h-.6a.4.4 0 1 0 0 .8h.6v.6a.4.4 0 1 0 .8 0v-.6h.6a.4.4 0 0 0 0-.8h-.6zm-4 3a.4.4 0 1 0-.8 0v.6H.5a.4.4 0 1 0 0 .8h.6v.6a.4.4 0 0 0 .8 0v-.6h.6a.4.4 0 0 0 0-.8h-.6zM8.544.982l-.298-.04c-.213-.024-.34.224-.217.4q.211.305.389.632A6.602 6.602 0 0 1 2.96 11.69c-.215.012-.334.264-.184.417q.103.105.21.206l.072.066l.26.226l.188.148l.121.09l.187.131l.176.115q.18.115.37.217l.264.135l.26.12l.303.122l.244.086a6.6 6.6 0 0 0 1.103.26l.317.04l.267.02q.19.011.384.011a6.6 6.6 0 0 0 6.56-7.339l-.038-.277a6.6 6.6 0 0 0-.384-1.415l-.113-.268l-.077-.166l-.074-.148a6.6 6.6 0 0 0-.546-.883l-.153-.2l-.199-.24l-.163-.18l-.12-.124l-.16-.158l-.223-.2l-.32-.26l-.245-.177l-.292-.19l-.321-.186l-.328-.165l-.113-.052l-.24-.101l-.276-.104l-.252-.082l-.325-.09l-.265-.06zm1.86 4.318a7.6 7.6 0 0 0-.572-2.894a5.601 5.601 0 1 1-4.748 10.146a7.6 7.6 0 0 0 3.66-2.51a.749.749 0 0 0 1.355-.442a.75.75 0 0 0-.584-.732q.093-.174.178-.355A1.25 1.25 0 1 0 10.35 6.2q.052-.442.052-.9" clip-rule="evenodd"></path></symbol>
<symbol viewBox="0 0 15 15" id="laptop"><path fill="currentColor" fill-rule="evenodd" d="M2 4.25A.25.25 0 0 1 2.25 4h10.5a.25.25 0 0 1 .25.25v7.25H2zM2.25 3C1.56 3 1 3.56 1 4.25V12H0v.5a.5.5 0 0 0 .5.5h14a.5.5 0 0 0 .5-.5V12h-1V4.25C14 3.56 13.44 3 12.75 3z" clip-rule="evenodd"></path></symbol>
<symbol viewBox="0 0 15 15" id="exit"><path fill="currentColor" fill-rule="evenodd" d="M3 1a1 1 0 0 0-1 1v11a1 1 0 0 0 1 1h7.5a.5.5 0 0 0 0-1H3V2h7.5a.5.5 0 0 0 0-1zm9.604 3.896a.5.5 0 0 0-.708.708L13.293 7H6.5a.5.5 0 0 0 0 1h6.793l-1.397 1.396a.5.5 0 0 0 .708.708l2.25-2.25a.5.5 0 0 0 0-.708z" clip-rule="evenodd"></path></symbol>
<symbol viewBox="0 0 15 15" id="download"><path fill="currentColor" fill-rule="evenodd" d="M7.5 1.05a.45.45 0 0 1 .45.45v6.914l2.232-2.232a.45.45 0 1 1 .636.636l-3 3a.45.45 0 0 1-.636 0l-3-3a.45.45 0 1 1 .636-.636L7.05 8.414V1.5a.45.45 0 0 1 .45-.45M2.5 10a.5.5 0 0 1 .5.5V12c0 .554.446 1 .996 1h7.005A1 1 0 0 0 12 12v-1.5a.5.5 0 0 1 1 0V12a2 2 0 0 1-1.999 2H3.996A1.997 1.997 0 0 1 2 12v-1.5a.5.5 0 0 1 .5-.5" clip-rule="evenodd"></path></symbol>
<symbol viewBox="0 0 15 15" id="cross-1"><path fill="currentColor" fill-rule="evenodd" d="M12.854 2.854a.5.5 0 0 0-.708-.708L7.5 6.793L2.854 2.146a.5.5 0 1 0-.708.708L6.793 7.5l-4.647 4.646a.5.5 0 0 0 .708.708L7.5 8.207l4.646 4.647a.5.5 0 0 0 .708-.708L8.207 7.5z" clip-rule="evenodd"></path></symbol>
<symbol viewBox="0 0 15 15" id="check"><path fill="currentColor" fill-rule="evenodd" d="M11.467 3.727c.289.189.37.576.181.865l-4.25 6.5a.625.625 0 0 1-.944.12l-2.75-2.5a.625.625 0 0 1 .841-.925l2.208 2.007l3.849-5.886a.625.625 0 0 1 .865-.181" clip-rule="evenodd"></path></symbol>
<symbol viewBox="0 0 15 15" id="avatar"><path fill="currentColor" fill-rule="evenodd" d="M.877 7.5a6.623 6.623 0 1 1 13.246 0a6.623 6.623 0 0 1-13.246 0M7.5 1.827a5.673 5.673 0 0 0-4.193 9.494A4.97 4.97 0 0 1 7.5 9.025a4.97 4.97 0 0 1 4.193 2.296A5.673 5.673 0 0 0 7.5 1.827m3.482 10.152A4.02 4.02 0 0 0 7.5 9.975a4.02 4.02 0 0 0-3.482 2.004A5.65 5.65 0 0 0 7.5 13.173c1.312 0 2.52-.446 3.482-1.194M5.15 6.505a2.35 2.35 0 1 1 4.7 0a2.35 2.35 0 0 1-4.7 0m2.35-1.4a1.4 1.4 0 1 0 0 2.8a1.4 1.4 0 0 0 0-2.8" clip-rule="evenodd"></path></symbol>
</defs>
</svg>